<svg width="15" height="29" viewBox="0 0 15 29" fill="none" xmlns="http://www.w3.org/2000/svg">
<path fill-rule="evenodd" clip-rule="evenodd" d="M14.7973 3.74016e-06V3.74016e-06C14.8583 6.86047e-06 14.9077 0.0494261 14.9077 0.110387L14.9077 5.13847C14.9077 5.69075 14.4597 6.13769 13.9074 6.13983C12.8631 6.14387 12.069 6.15972 11.4156 6.22114C11.1456 6.24651 10.9385 6.27706 10.7816 6.307C10.5284 6.35527 10.331 6.53923 10.2738 6.79051C10.1818 7.19412 10.0846 7.92936 10.0846 9.22178V27.5C10.0846 28.0523 9.6369 28.5 9.08461 28.5H4.94615C4.39387 28.5 3.94615 28.0523 3.94615 27.5V9.22178C3.94616 6.20897 4.30082 2.98415 7.06029 1.24272C8.28092 0.472403 9.65509 0.22109 10.8412 0.109611C12.0088 -0.000139061 13.379 -6.90178e-05 14.7973 3.74016e-06ZM10.4344 6.34182V6.34182C10.4369 6.34722 10.432 6.33641 10.4344 6.34182V6.34182Z" fill="#1D263A"/>
<path fill-rule="evenodd" clip-rule="evenodd" d="M14.9077 15.2231C14.9077 15.7754 14.46 16.2231 13.9077 16.2231H1C0.447715 16.2231 0 15.7754 0 15.2231V11.9615C0 11.4093 0.447715 10.9615 1 10.9615H13.9077C14.46 10.9615 14.9077 11.4093 14.9077 11.9615V15.2231Z" fill="#1D263A"/>
</svg>
