<svg width="29" height="29" viewBox="0 0 29 29" fill="none" xmlns="http://www.w3.org/2000/svg">
<path d="M14.5 10.15C13.3463 10.15 12.2399 10.6083 11.4241 11.4241C10.6083 12.2399 10.15 13.3463 10.15 14.5C10.15 15.6537 10.6083 16.7601 11.4241 17.5759C12.2399 18.3917 13.3463 18.85 14.5 18.85C15.6537 18.85 16.7601 18.3917 17.5759 17.5759C18.3917 16.7601 18.85 15.6537 18.85 14.5C18.85 13.3463 18.3917 12.2399 17.5759 11.4241C16.7601 10.6083 15.6537 10.15 14.5 10.15ZM14.5 7.25C16.4228 7.25 18.2669 8.01384 19.6265 9.37348C20.9862 10.7331 21.75 12.5772 21.75 14.5C21.75 16.4228 20.9862 18.2669 19.6265 19.6265C18.2669 20.9862 16.4228 21.75 14.5 21.75C12.5772 21.75 10.7331 20.9862 9.37348 19.6265C8.01384 18.2669 7.25 16.4228 7.25 14.5C7.25 12.5772 8.01384 10.7331 9.37348 9.37348C10.7331 8.01384 12.5772 7.25 14.5 7.25ZM23.925 6.8875C23.925 7.36821 23.734 7.82922 23.3941 8.16913C23.0542 8.50904 22.5932 8.7 22.1125 8.7C21.6318 8.7 21.1708 8.50904 20.8309 8.16913C20.491 7.82922 20.3 7.36821 20.3 6.8875C20.3 6.4068 20.491 5.94578 20.8309 5.60587C21.1708 5.26596 21.6318 5.075 22.1125 5.075C22.5932 5.075 23.0542 5.26596 23.3941 5.60587C23.734 5.94578 23.925 6.4068 23.925 6.8875ZM14.5 2.9C10.9127 2.9 10.3269 2.91015 8.65795 2.9841C7.52115 3.03775 6.75845 3.19 6.05085 3.4655C5.42155 3.7091 4.9677 4.00055 4.48485 4.48485C4.03101 4.92333 3.68206 5.45865 3.46405 6.05085C3.18855 6.76135 3.0363 7.5226 2.9841 8.65795C2.9087 10.2588 2.9 10.8184 2.9 14.5C2.9 18.0873 2.91015 18.6731 2.9841 20.342C3.03775 21.4774 3.19 22.2416 3.46405 22.9477C3.71055 23.5785 4.00055 24.0323 4.48195 24.5137C4.9706 25.0009 5.42445 25.2924 6.04795 25.5331C6.76425 25.81 7.52695 25.9637 8.65795 26.0159C10.2588 26.0913 10.8184 26.1 14.5 26.1C18.0873 26.1 18.6731 26.0898 20.342 26.0159C21.4759 25.9622 22.2401 25.81 22.9477 25.536C23.5756 25.2909 24.0323 24.9995 24.5137 24.5181C25.0024 24.0294 25.2938 23.5756 25.5345 22.9521C25.81 22.2372 25.9637 21.473 26.0159 20.342C26.0913 18.7412 26.1 18.1815 26.1 14.5C26.1 10.9127 26.0898 10.3269 26.0159 8.65795C25.9622 7.52405 25.81 6.75845 25.5345 6.05085C25.316 5.45925 24.9677 4.92414 24.5151 4.48485C24.0769 4.03078 23.5415 3.68179 22.9492 3.46405C22.2387 3.18855 21.4759 3.0363 20.342 2.9841C18.7412 2.9087 18.1815 2.9 14.5 2.9ZM14.5 0C18.4396 0 18.9312 0.0144996 20.4769 0.0869996C22.0212 0.1595 23.0724 0.40165 23.9975 0.76125C24.9545 1.12955 25.7607 1.62835 26.5669 2.4331C27.3042 3.15795 27.8747 4.03475 28.2388 5.0025C28.5969 5.92615 28.8405 6.97885 28.913 8.5231C28.9811 10.0688 29 10.5603 29 14.5C29 18.4396 28.9855 18.9312 28.913 20.4769C28.8405 22.0212 28.5969 23.0724 28.2388 23.9975C27.8758 24.9658 27.3051 25.8428 26.5669 26.5669C25.8418 27.304 24.9651 27.8744 23.9975 28.2388C23.0739 28.5969 22.0212 28.8405 20.4769 28.913C18.9312 28.9811 18.4396 29 14.5 29C10.5603 29 10.0688 28.9855 8.5231 28.913C6.97885 28.8405 5.9276 28.5969 5.0025 28.2388C4.03437 27.8755 3.15741 27.3049 2.4331 26.5669C1.69564 25.8422 1.1251 24.9653 0.76125 23.9975C0.40165 23.0739 0.1595 22.0212 0.0869996 20.4769C0.0188496 18.9312 0 18.4396 0 14.5C0 10.5603 0.0144996 10.0688 0.0869996 8.5231C0.1595 6.9774 0.40165 5.9276 0.76125 5.0025C1.12409 4.03416 1.69477 3.15712 2.4331 2.4331C3.15762 1.69539 4.03452 1.12481 5.0025 0.76125C5.9276 0.40165 6.9774 0.1595 8.5231 0.0869996C10.0688 0.0188496 10.5603 0 14.5 0Z" fill="#1D263A"/>
</svg>
